PathFileType	4	(X/Y/Z)	/Users/itak/Documents/Research/Walk-IL/dataset/trc/00126_00007.trc
DataRate	CameraRate	NumFrames	NumMarkers	Units	OrigDataRate	OrigDataStartFrame	OrigNumFrames
100.000000	100.000000	4	55	mm	100.000000	0	747
Frame#	Time	RPSI			LPSI			L3			STRN			T10			C7			CLAV			RBAK			LBAK			LSHO			LUPA			LAEL			LAOL			LWTS			LWPS			LFRA			LIFD			LHPS			LHTS			RSHO			RUPA			RAEL			RAOL			RWTS			RWPS			RFRA			RIFD			RHTS			RHPS			RBHD			LFHD			RFHD			LBHD			LHIP			RHIP			RASI			LASI			LKNE			LTHI			LANK			LTIP			LTOE			LMT1			LMT5			LHEE			RKNE			RTHI			RANK			RTIP			RTOE			RMT1			RMT5			RHEE			*53			*54			
		X1	Y1	Z1	X2	Y2	Z2	X3	Y3	Z3	X4	Y4	Z4	X5	Y5	Z5	X6	Y6	Z6	X7	Y7	Z7	X8	Y8	Z8	X9	Y9	Z9	X10	Y10	Z10	X11	Y11	Z11	X12	Y12	Z12	X13	Y13	Z13	X14	Y14	Z14	X15	Y15	Z15	X16	Y16	Z16	X17	Y17	Z17	X18	Y18	Z18	X19	Y19	Z19	X20	Y20	Z20	X21	Y21	Z21	X22	Y22	Z22	X23	Y23	Z23	X24	Y24	Z24	X25	Y25	Z25	X26	Y26	Z26	X27	Y27	Z27	X28	Y28	Z28	X29	Y29	Z29	X30	Y30	Z30	X31	Y31	Z31	X32	Y32	Z32	X33	Y33	Z33	X34	Y34	Z34	X35	Y35	Z35	X36	Y36	Z36	X37	Y37	Z37	X38	Y38	Z38	X39	Y39	Z39	X40	Y40	Z40	X41	Y41	Z41	X42	Y42	Z42	X43	Y43	Z43	X44	Y44	Z44	X45	Y45	Z45	X46	Y46	Z46	X47	Y47	Z47	X48	Y48	Z48	X49	Y49	Z49	X50	Y50	Z50	X51	Y51	Z51	X52	Y52	Z52	X53	Y53	Z53	X54	Y54	Z54	X55	Y55	Z55	

1	0	-48.00172805786133	1129.643676757812	1264.68310546875	-62.53240203857422	1132.434326171875	1131.217407226562	-62.12036895751953	1161.915649414062	1197.66259765625	141.1109619140625	1370.555541992188	1179.270263671875	-108.6351318359375	1308.932983398438	1206.453491210938	-91.09481811523438	1603.224853515625	1197.840087890625	97.90089416503906	1503.430786132812	1182.542358398438	-125.8502578735352	1415.413696289062	1286.02099609375	-107.6575088500977	1583.921264648438	1096.054565429688	-27.71128082275391	1575.126220703125	1018.388854980469	-45.93789291381836	1443.483520507812	947.2113037109375	-13.73945045471191	1224.313110351562	923.2095336914062	-80.54753112792969	1208.562622070312	978.39697265625	100.2280502319336	973.0428466796875	970.6932373046875	20.82798767089844	942.4847412109375	941.230224609375	10.04905700683594	1109.372802734375	920.09765625	121.7387008666992	782.7855224609375	996.3198852539062	54.03168487548828	869.1324462890625	941.8450317382812	120.5964736938477	884.24609375	960.0968017578125	-13.30641746520996	1582.925415039062	1370.807495117188	-17.92181587219238	1508.81787109375	1436.124633789062	-16.31920051574707	1213.820556640625	1452.311645507812	-37.79020690917969	1212.878173828125	1359.332763671875	131.9975280761719	975.7379150390625	1408.8837890625	64.78471374511719	955.81201171875	1451.892578125	12.81152057647705	1140.482177734375	1462.647827148438	157.6808624267578	783.5858764648438	1378.805419921875	165.3506317138672	868.0439453125	1406.30517578125	104.1328582763672	857.1312255859375	1445.480712890625	19.5926628112793	1767.425048828125	1288.5302734375	29.59378814697266	1857.85107421875	1085.614379882812	123.5528182983398	1860.184936523438	1175.384399414062	-83.60840606689453	1769.083618164062	1202.614868164062	18.41033744812012	1046.79052734375	1012.602355957031	93.01177215576172	1034.632568359375	1365.02783203125	166.2925720214844	1110.7021484375	1306.652465820312	128.9773559570312	1116.072021484375	1043.5068359375	62.40837860107422	545.8034057617188	1035.762451171875	33.04148864746094	691.7848510742188	1010.359558105469	-45.29811859130859	43.89813232421875	1045.95263671875	-36.95777893066406	297.6162414550781	1015.400268554688	183.4562530517578	40.64081192016602	1104.631469726562	102.5345840454102	41.54336929321289	1139.258544921875	80.16952514648438	42.50587463378906	1025.447875976562	-116.7050857543945	42.49531173706055	1106.566162109375	76.90074157714844	543.0206909179688	1320.1982421875	113.3060684204102	820.23486328125	1351.225952148438	-39.46172332763672	33.96134948730469	1297.1708984375	49.38890075683594	408.7480773925781	1330.45263671875	190.1864776611328	49.67665863037109	1232.973266601562	127.5103454589844	41.79087829589844	1193.021240234375	95.11155700683594	41.96865081787109	1313.43701171875	-100.3539123535156	35.50324249267578	1250.610961914062	nan	nan	nan	nan	nan	nan	
2	0.01	-47.9846305847168	1129.648071289062	1264.448364257812	-62.42109298706055	1132.436279296875	1130.986572265625	-62.04298400878906	1161.916015625	1197.44775390625	141.1268615722656	1370.532592773438	1179.10107421875	-108.6765365600586	1308.932006835938	1206.11767578125	-91.00743865966797	1603.213012695312	1197.477172851562	97.919189453125	1503.402465820312	1182.317626953125	-125.8050689697266	1415.40771484375	1285.685668945312	-107.5368270874023	1583.897827148438	1095.71484375	-27.55160140991211	1575.082885742188	1018.047607421875	-45.7944450378418	1443.41943359375	946.897216796875	-13.61572074890137	1224.247314453125	922.9803466796875	-80.43681335449219	1208.50439453125	978.103271484375	100.2944641113281	972.989990234375	970.58935546875	20.94702529907227	942.4454956054688	941.0662841796875	10.21048641204834	1109.313110351562	919.9036254882812	121.8850936889648	782.7379150390625	996.2185668945312	54.1769905090332	869.0914306640625	941.703369140625	120.7821731567383	884.1993408203125	959.9613647460938	-13.37264728546143	1582.923950195312	1370.511962890625	-18.0150203704834	1508.812622070312	1435.821044921875	-16.35129165649414	1213.802490234375	1452.052490234375	-37.74034118652344	1212.859252929688	1359.12548828125	132.02490234375	975.7471313476562	1408.803100585938	64.82240295410156	955.839599609375	1451.79443359375	12.83040428161621	1140.491821289062	1462.469848632812	157.7584228515625	783.6027221679688	1378.792724609375	165.4322357177734	868.0732421875	1406.260131835938	104.1817855834961	857.1591796875	1445.435791015625	19.30693817138672	1767.454345703125	1288.26171875	30.39114761352539	1857.813842773438	1085.380615234375	123.9271774291992	1860.039672851562	1175.635986328125	-83.47426605224609	1769.231201171875	1201.914184570312	18.54208755493164	1046.738403320312	1012.442077636719	92.98792266845703	1034.64453125	1364.8916015625	166.2965240478516	1110.697265625	1306.54638671875	129.0716400146484	1116.015869140625	1043.37841796875	62.44572067260742	545.7649536132812	1035.697998046875	33.07035827636719	691.7344970703125	1010.257446289062	-45.29699325561523	43.88571548461914	1045.941040039062	-36.9548225402832	297.5845947265625	1015.340454101562	183.4543151855469	40.64156341552734	1104.63037109375	102.5285415649414	41.54109573364258	1139.26220703125	80.15421295166016	42.49309158325195	1025.443603515625	-116.7106170654297	42.49352264404297	1106.55859375	76.93621826171875	543.0418701171875	1320.0703125	112.4124374389648	820.7341918945312	1351.352783203125	-39.46918106079102	33.96635437011719	1297.166748046875	49.44730377197266	408.7612609863281	1330.349731445312	190.1840515136719	49.68807220458984	1232.975219726562	127.5112686157227	41.79438781738281	1193.011474609375	95.11625671386719	41.97159957885742	1313.421142578125	-100.3355407714844	35.49658966064453	1250.609130859375	nan	nan	nan	nan	nan	nan	
3	0.02	-47.95735549926758	1129.651977539062	1264.160522460938	-62.28921127319336	1132.430908203125	1130.705932617188	-61.9433708190918	1161.915161132812	1197.176513671875	141.1518402099609	1370.5	1178.8916015625	-108.7189559936523	1308.924560546875	1205.693725585938	-90.89921569824219	1603.198120117188	1197.02001953125	97.95414733886719	1503.36669921875	1182.035034179688	-125.7628555297852	1415.398193359375	1285.25048828125	-107.3927383422852	1583.86376953125	1095.279907226562	-27.34077644348145	1575.023071289062	1017.619323730469	-45.60221099853516	1443.33837890625	946.502685546875	-13.45442008972168	1224.161376953125	922.682861328125	-80.29593658447266	1208.420288085938	977.7381591796875	100.4050369262695	972.9136962890625	970.4354248046875	21.0981330871582	942.3850708007812	940.8648071289062	10.41311645507812	1109.230834960938	919.6514892578125	122.068000793457	782.6786499023438	996.0941772460938	54.3638916015625	869.0311889648438	941.5245361328125	121.0035629272461	884.1373291015625	959.7942504882812	-13.45454692840576	1582.922607421875	1370.13818359375	-18.12217903137207	1508.808471679688	1435.439208984375	-16.38116836547852	1213.785522460938	1451.7275390625	-37.68063735961914	1212.838623046875	1358.847412109375	132.057861328125	975.7559814453125	1408.693481445312	64.85989379882812	955.87548828125	1451.661743164062	12.85256767272949	1140.506103515625	1462.23828125	157.8431396484375	783.616455078125	1378.777709960938	165.5204162597656	868.1038818359375	1406.203491210938	104.2344512939453	857.1935424804688	1445.376586914062	18.94729423522949	1767.49658203125	1287.9169921875	31.4014892578125	1857.759765625	1085.084716796875	124.4051742553711	1859.863037109375	1175.951904296875	-83.30487060546875	1769.407958984375	1200.99755859375	18.71644973754883	1046.67333984375	1012.232727050781	92.95980072021484	1034.660278320312	1364.7216796875	166.3028411865234	1110.691528320312	1306.408081054688	129.1956634521484	1115.945190429688	1043.21435546875	62.50354385375977	545.7173461914062	1035.615112304688	33.12525939941406	691.6707153320312	1010.128784179688	-45.29793548583984	43.86799240112305	1045.92822265625	-36.94161987304688	297.5429077148438	1015.2626953125	183.451171875	40.64229202270508	1104.62890625	102.5191192626953	41.53666305541992	1139.267211914062	80.13859558105469	42.47844314575195	1025.438598632812	-116.7151184082031	42.49170303344727	1106.54931640625	76.99324798583984	543.0670166015625	1319.906494140625	111.5940093994141	821.203125	1351.428588867188	-39.47616577148438	33.97615814208984	1297.15771484375	49.52864456176758	408.7774963378906	1330.2158203125	190.1789398193359	49.70403289794922	1232.980224609375	127.5111312866211	41.79925155639648	1193.003540039062	95.12191009521484	41.973876953125	1313.403076171875	-100.3297424316406	35.49726486206055	1250.600463867188	-2751.461181640625	1044.884887695312	-932.221435546875	nan	nan	nan	
4	0.03	-47.91939926147461	1129.65478515625	1263.834228515625	-62.14130020141602	1132.415405273438	1130.389038085938	-61.82401275634766	1161.912841796875	1196.859497070312	141.1893615722656	1370.457763671875	1178.650512695312	-108.7543640136719	1308.910034179688	1205.20166015625	-90.77416229248047	1603.180908203125	1196.485229492188	98.01051330566406	1503.324584960938	1181.705810546875	-125.7297973632812	1415.3857421875	1284.727172851562	-107.2301177978516	1583.81884765625	1094.761962890625	-27.08420753479004	1574.946411132812	1017.122619628906	-45.36107635498047	1443.243041992188	946.0432739257812	-13.25955486297607	1224.057006835938	922.326171875	-80.12748718261719	1208.310791015625	977.3168334960938	100.5647277832031	972.8140258789062	970.22900390625	21.27596664428711	942.2999267578125	940.6348266601562	10.64874839782715	1109.1259765625	919.34814453125	122.2797012329102	782.6102905273438	995.9525146484375	54.58535003662109	868.9498901367188	941.3167114257812	121.2458343505859	884.060791015625	959.6038818359375	-13.54754447937012	1582.921752929688	1369.700805664062	-18.23312950134277	1508.806518554688	1434.994995117188	-16.40319061279297	1213.773315429688	1451.350952148438	-37.61447525024414	1212.818969726562	1358.502197265625	132.0935211181641	975.7628173828125	1408.555053710938	64.89016723632812	955.9181518554688	1451.495483398438	12.87615013122559	1140.52587890625	1461.958862304688	157.9246826171875	783.623046875	1378.760864257812	165.6043701171875	868.1314697265625	1406.13671875	104.2838134765625	857.232421875	1445.302490234375	18.5264892578125	1767.552490234375	1287.506469726562	32.58733367919922	1857.685302734375	1084.738159179688	124.968864440918	1859.662963867188	1176.315673828125	-83.1064453125	1769.605590820312	1199.890502929688	18.93160057067871	1046.59912109375	1011.982666015625	92.92942047119141	1034.67919921875	1364.524780273438	166.3124694824219	1110.68505859375	1306.241821289062	129.3504180908203	1115.863037109375	1043.01953125	62.58335876464844	545.6625366210938	1035.51611328125	33.21169281005859	691.5965576171875	1009.978576660156	-45.30187225341797	43.84446334838867	1045.914672851562	-36.91334533691406	297.4919128417969	1015.168273925781	183.4478607177734	40.64253616333008	1104.628173828125	102.5066528320312	41.53022384643555	1139.273071289062	80.12393951416016	42.46246337890625	1025.432739257812	-116.7171859741211	42.49040603637695	1106.538818359375	77.07593536376953	543.0946655273438	1319.713012695312	110.9538803100586	821.5859375	1351.43310546875	-39.48211288452148	33.9912223815918	1297.142944335938	49.63337707519531	408.7958679199219	1330.054931640625	190.1701049804688	49.72508239746094	1232.989135742188	127.5094833374023	41.80525207519531	1192.9990234375	95.12819671630859	41.97539520263672	1313.384033203125	-100.3396987915039	35.50703048706055	1250.583374023438	nan	nan	nan	nan	nan	nan	
